<svg xmlns="http://www.w3.org/2000/svg" xmlns:xlink="http://www.w3.org/1999/xlink" width="1920" height="803" viewBox="0 0 1920 803"><defs><style>.a{fill:#fff;stroke:#707070;}.b{clip-path:url(#a);}.c{fill:#eae7fd;}.d{fill:#86c1e3;}.e{fill:#000f36;}</style><clipPath id="a"><rect class="a" width="1920" height="803" transform="translate(0 6652)"/></clipPath></defs><g class="b" transform="translate(0 -6652)"><g transform="translate(15 3853)"><path class="c" d="M2370.619-3483.344c634.628,288.7,1997.529,159.491,2049.007,552.861s-68.78,1909.7-68.78,1909.7H2210.028S1735.991-3772.04,2370.619-3483.344Z" transform="translate(-2347 6325.164)"/><path class="d" d="M2370.619-3483.344c634.628,288.7,1997.529,159.491,2049.007,552.861s-68.78,1909.7-68.78,1909.7H2210.028S1735.991-3772.04,2370.619-3483.344Z" transform="translate(-2347 6338.164)"/><path class="e" d="M2370.619-3483.344c634.628,288.7,1997.529,159.491,2049.007,552.861s-68.78,1909.7-68.78,1909.7H2210.028S1735.991-3772.04,2370.619-3483.344Z" transform="translate(-2347 6351.164)"/></g></g></svg>