<svg xmlns="http://www.w3.org/2000/svg" xmlns:xlink="http://www.w3.org/1999/xlink" width="78" height="78" viewBox="0 0 78 78"><defs><style>.a{fill:#4a94ef;}.b{fill:#fff;}.c{filter:url(#a);}</style><filter id="a" x="0" y="0" width="78" height="78" filterUnits="userSpaceOnUse"><feOffset dx="3" dy="3" input="SourceAlpha"/><feGaussianBlur stdDeviation="1.5" result="b"/><feFlood flood-opacity="0.514"/><feComposite operator="in" in2="b"/><feComposite in="SourceGraphic"/></filter></defs><g transform="translate(1.365 1.5)"><g class="c" transform="matrix(1, 0, 0, 1, -1.36, -1.5)"><circle class="a" cx="34.5" cy="34.5" r="34.5" transform="translate(1.5 1.5)"/></g><g transform="translate(24.166 14.823)"><path class="b" d="M42.518.008,37.423,0C31.7,0,28,3.795,28,9.669v4.458H22.878a.8.8,0,0,0-.8.8v6.459a.8.8,0,0,0,.8.8H28v16.3a.8.8,0,0,0,.8.8h6.683a.8.8,0,0,0,.8-.8v-16.3h5.989a.8.8,0,0,0,.8-.8l0-6.459a.8.8,0,0,0-.8-.8H36.286V10.348c0-1.816.433-2.738,2.8-2.738h3.432a.8.8,0,0,0,.8-.8v-6A.8.8,0,0,0,42.518.008Z" transform="translate(-22.077)"/></g></g></svg>