<svg xmlns="http://www.w3.org/2000/svg" xmlns:xlink="http://www.w3.org/1999/xlink" width="78" height="78" viewBox="0 0 78 78"><defs><style>.a{fill:#c5d0d9;}.b{fill:#fff;}.c{filter:url(#a);}</style><filter id="a" x="0" y="0" width="78" height="78" filterUnits="userSpaceOnUse"><feOffset dx="3" dy="3" input="SourceAlpha"/><feGaussianBlur stdDeviation="1.5" result="b"/><feFlood flood-opacity="0.514"/><feComposite operator="in" in2="b"/><feComposite in="SourceGraphic"/></filter></defs><g transform="translate(1.23 1.5)"><g class="c" transform="matrix(1, 0, 0, 1, -1.23, -1.5)"><circle class="a" cx="34.5" cy="34.5" r="34.5" transform="translate(1.5 1.5)"/></g><g transform="translate(19.784 19.651)"><path class="b" d="M22.179,0H8.232A8.241,8.241,0,0,0,0,8.232V22.18a8.241,8.241,0,0,0,8.232,8.232H22.18a8.241,8.241,0,0,0,8.232-8.232V8.232A8.241,8.241,0,0,0,22.179,0ZM15.206,23.521a8.315,8.315,0,1,1,8.315-8.315A8.325,8.325,0,0,1,15.206,23.521ZM23.72,8.851a2.457,2.457,0,1,1,2.457-2.457A2.46,2.46,0,0,1,23.72,8.851Zm0,0"/><path class="b" d="M152.552,146.02a6.533,6.533,0,1,0,6.533,6.533A6.54,6.54,0,0,0,152.552,146.02Zm0,0" transform="translate(-137.346 -137.346)"/><path class="b" d="M388.667,96.3a.674.674,0,1,0,.674.674A.675.675,0,0,0,388.667,96.3Zm0,0" transform="translate(-364.946 -90.581)"/></g></g></svg>