<svg xmlns="http://www.w3.org/2000/svg" xmlns:xlink="http://www.w3.org/1999/xlink" width="78" height="78" viewBox="0 0 78 78"><defs><style>.a{fill:#86c1e3;}.b{fill:#fff;}.c{filter:url(#a);}</style><filter id="a" x="0" y="0" width="78" height="78" filterUnits="userSpaceOnUse"><feOffset dx="3" dy="3" input="SourceAlpha"/><feGaussianBlur stdDeviation="1.5" result="b"/><feFlood flood-opacity="0.502"/><feComposite operator="in" in2="b"/><feComposite in="SourceGraphic"/></filter></defs><g transform="translate(1.5 1.5)"><g class="c" transform="matrix(1, 0, 0, 1, -1.5, -1.5)"><circle class="a" cx="34.5" cy="34.5" r="34.5" transform="translate(1.5 1.5)"/></g><g transform="translate(18.399 15.939)"><path class="b" d="M3.883-.668a3.577,3.577,0,1,0-.09,7.135h.045A3.579,3.579,0,1,0,3.883-.668Zm0,0" transform="translate(0 0.668)"/><path class="b" d="M8.109,198.313h6.864v20.65H8.109Zm0,0" transform="translate(-7.704 -188.358)"/><path class="b" d="M234.264,188.625c-3.7,0-6.186,3.479-6.186,3.479V189.11h-6.864v20.65h6.864V198.228a4.7,4.7,0,0,1,.226-1.675,3.757,3.757,0,0,1,3.522-2.51c2.484,0,3.477,1.894,3.477,4.67V209.76h6.863v-11.84C242.166,191.577,238.78,188.625,234.264,188.625Zm0,0" transform="translate(-210.148 -179.155)"/></g></g></svg>