<svg xmlns="http://www.w3.org/2000/svg" xmlns:xlink="http://www.w3.org/1999/xlink" width="278.024" height="87.443" viewBox="0 0 278.024 87.443"><defs><style>.a{fill:#fff;}.b{fill:#d3d3d3;}.c{fill:url(#a);}</style><linearGradient id="a" x1="0.049" y1="1.151" x2="0.861" y2="-0.021" gradientUnits="objectBoundingBox"><stop offset="0.156" stop-color="#fff"/><stop offset="1" stop-color="#c4c4c4"/></linearGradient></defs><g transform="translate(-851.148 -566.5)"><path class="a" d="M1122.564,587.107v-13.9h-11.045v5.371l-15.65-12.081-24.553,18.953,24.875,19.2L1131,593.621Z" transform="translate(-167.71)"/><g transform="translate(851.148 604.655)"><path class="a" d="M851.148,748.355l7.066-1.729V726.637Z" transform="translate(-851.148 -726.637)"/></g><path class="b" d="M951.073,689.22H880.806V639.932l35.133-27.121,35.134,27.121Z" transform="translate(-22.592 -35.277)"/><path class="a" d="M1210.528,739.143l-24.751,7.845-10.061-20.351v49.288l34.811-11.034Z" transform="translate(-247.235 -121.982)"/><path class="c" d="M1220.589,700.677l-34.811,11.034-10.061-20.351,34.811-11.034Z" transform="translate(-247.236 -86.705)"/><g transform="translate(992.698 599.742)"><path class="a" d="M1483.127,729.927c.182,10.731-6.366,21.583-21.219,21.583h-16.673V709.071h16.673C1476.458,709.071,1482.945,719.438,1483.127,729.927Zm-29.949,13.884h8.73c9.64,0,13.459-7.033,13.277-13.944-.182-6.608-4.062-13.217-13.277-13.217h-8.73Z" transform="translate(-1445.235 -708.343)"/><path class="a" d="M1645.134,759.416h7.093v29.889h-6.972l-.364-4.365c-1.7,3.516-6.366,5.214-9.7,5.275-8.851.061-15.4-5.4-15.4-15.884,0-10.307,6.851-15.7,15.581-15.642,4,0,7.821,1.879,9.518,4.85Zm-17.946,14.915c0,5.7,3.941,9.094,8.852,9.094,11.641,0,11.641-18.128,0-18.128C1631.128,765.3,1627.188,768.631,1627.188,774.33Z" transform="translate(-1578.201 -746.138)"/><path class="a" d="M1774.48,749.184V726.206H1768.9v-6.487h5.578v-2c0-8,5.4-11.7,11.4-11.7a14.418,14.418,0,0,1,7.76,2.425l-2.728,5.517a8.241,8.241,0,0,0-4.547-1.576c-2.547,0-4.487,1.7-4.487,5.335v2h8.791v6.487h-8.791v22.978Z" transform="translate(-1691.783 -706.017)"/><path class="a" d="M1877.027,749.184V726.206h-5.578v-6.487h5.578v-2c0-8,5.4-11.7,11.4-11.7a14.418,14.418,0,0,1,7.76,2.425l-2.728,5.517a8.242,8.242,0,0,0-4.547-1.576c-2.547,0-4.487,1.7-4.487,5.335v2h8.791v6.487h-8.791v22.978Z" transform="translate(-1769.897 -706.017)"/><path class="a" d="M1994.563,709.325V751.7h-7.336V709.325Z" transform="translate(-1858.089 -708.537)"/></g></g></svg>