<svg xmlns="http://www.w3.org/2000/svg" width="1123.377" height="1019.702" viewBox="0 0 1123.377 1019.702"><defs><style>.a{fill:#eae7fd;opacity:0.535;}.b{fill:#4a94ef;opacity:0.095;}</style></defs><g transform="translate(-398.012 -6097.675)"><path class="a" d="M-1152.043-5471.86c-142.084-38.4-208.3-140.279-333.162-171.452s-473.454-249.6-301.208-586.338,568.923-200.14,709.17-135.193,160.375,106.936,160.375,106.936,392.729,164.807,96.161,714.914C-893.072-5370.137-1009.959-5433.456-1152.043-5471.86Z" transform="translate(2231.309 12545.554)"/><path class="b" d="M-1171.052-5535.728c-135.186-48.211-212.254-151.453-331.052-181.113s-450.469-237.485-286.584-557.874,541.3-190.422,674.74-128.627S-961.36-6301.6-961.36-6301.6s423.505,175.806,31.043,765.871C-932.434-5530.819-1035.865-5487.517-1171.052-5535.728Z" transform="translate(2250.346 12599.276)"/></g></svg>